<?xml version="1.0" encoding="UTF-8"?>
<svg id="Layer_1" data-name="Layer 1" xmlns="http://www.w3.org/2000/svg" viewBox="0 0 320 64">
  <defs>
    <style>
      .cls-1 {
        fill: #5970ff;
      }

      .cls-2 {
        fill: #ae4df7;
      }

      .cls-3 {
        fill: #00aeef;
      }

      .cls-4 {
        fill: #c49a6c;
      }

      .cls-5 {
        fill: #d1d3d4;
      }

      .cls-6 {
        fill: #ef4136;
      }

      .cls-7 {
        fill: #ec008c;
      }

      .cls-8 {
        fill: #f9ed32;
      }

      .cls-9 {
        fill: #e30015;
      }
    </style>
  </defs>
  <g>
    <path class="cls-4" d="m64,32c0,17.67-14.33,32-32,32-9.94,0-18.82-4.53-24.69-11.64,5.44,4.24,12.27,6.78,19.7,6.78,17.67,0,32-14.33,32-32,0-7.73-2.75-14.82-7.31-20.35,7.48,5.86,12.3,14.98,12.3,25.22Z"/>
    <path class="cls-1" d="m59.01,27.13c0,17.67-14.33,32-32,32-7.43,0-14.27-2.54-19.7-6.78-.55-.67-1.08-1.36-1.58-2.07,5.11,3.44,11.26,5.46,17.89,5.46,17.67,0,32-14.33,32-32,0-6.8-2.12-13.1-5.73-18.28.62.42,1.23.86,1.81,1.32,4.56,5.53,7.31,12.62,7.31,20.35Z"/>
    <path class="cls-2" d="m55.63,23.75c0,17.67-14.33,32-32,32-6.63,0-12.78-2.02-17.89-5.46-.53-.76-1.03-1.55-1.49-2.36,4.59,2.56,9.88,4.01,15.5,4.01,17.67,0,32-14.33,32-32,0-5.8-1.55-11.24-4.24-15.92.82.45,1.62.94,2.39,1.46,3.61,5.19,5.73,11.48,5.73,18.28Z"/>
    <path class="cls-9" d="m51.75,19.93c0,17.67-14.33,32-32,32-5.63,0-10.91-1.45-15.5-4.01-.56-.97-1.07-1.97-1.51-3.01,3.86,1.66,8.12,2.58,12.59,2.58,17.67,0,32-14.33,32-32,0-4.6-.97-8.97-2.72-12.92,1,.43,1.97.91,2.91,1.43,2.7,4.69,4.24,10.12,4.24,15.92Z"/>
    <path class="cls-7" d="m47.31,15.49c0,17.67-14.33,32-32,32-4.47,0-8.73-.92-12.59-2.58-.46-1.03-.86-2.08-1.2-3.17,2.99.94,6.18,1.43,9.48,1.43,17.67,0,32-14.33,32-32,0-3.41-.53-6.68-1.51-9.75,1.06.33,2.1.71,3.1,1.15,1.75,3.95,2.72,8.32,2.72,12.92Z"/>
    <path class="cls-6" d="m43,11.18c0,17.67-14.33,32-32,32-3.3,0-6.48-.5-9.48-1.43-.31-.96-.58-1.94-.79-2.94,2.12.44,4.32.68,6.57.68,17.67,0,32-14.33,32-32,0-2.34-.25-4.62-.73-6.81.99.2,1.96.46,2.91.75.99,3.07,1.51,6.35,1.51,9.75Z"/>
    <path class="cls-3" d="m39.31,7.49c0,17.67-14.33,32-32,32-2.25,0-4.45-.23-6.57-.68-.26-1.21-.46-2.43-.58-3.68.88.07,1.77.11,2.66.11,17.67,0,32-14.33,32-32,0-1.06-.05-2.1-.15-3.13,1.33.11,2.64.3,3.92.57.48,2.19.73,4.47.73,6.81Z"/>
    <path class="cls-8" d="m34.81,3.24c0,17.67-14.33,32-32,32-.89,0-1.78-.04-2.66-.11C.05,34.1,0,33.05,0,32s.05-2.04.15-3.04C15.47,27.59,27.68,15.43,29.12.13,30.07.04,31.03,0,32,0c.89,0,1.79.04,2.66.11.1,1.03.15,2.07.15,3.13Z"/>
    <path class="cls-5" d="m29.12.13C27.68,15.43,15.47,27.59.15,28.95,1.59,13.65,13.8,1.49,29.12.13Z"/>
  </g>
  <g>
    <path class="cls-4" d="m105.88,1.57c16.8,5.46,26,23.51,20.54,40.32-3.07,9.45-10.13,16.5-18.7,19.88,5.71-3.86,10.24-9.58,12.53-16.64,5.46-16.81-3.74-34.86-20.54-40.32-7.35-2.39-14.94-1.97-21.61.66,7.88-5.31,18.04-7.07,27.78-3.9Z"/>
    <path class="cls-1" d="m99.72,4.81c16.8,5.46,26,23.51,20.54,40.32-2.3,7.07-6.82,12.78-12.53,16.64-.8.32-1.63.6-2.45.86,4.85-3.8,8.67-9.02,10.72-15.33,5.46-16.81-3.74-34.86-20.54-40.32-6.46-2.1-13.11-2.03-19.15-.2.59-.46,1.2-.9,1.81-1.31,6.67-2.63,14.26-3.05,21.61-.66Z"/>
    <path class="cls-2" d="m95.45,6.99c16.8,5.46,26,23.51,20.54,40.32-2.05,6.31-5.87,11.53-10.72,15.33-.89.27-1.79.5-2.71.69,3.85-3.58,6.86-8.15,8.6-13.51,5.46-16.81-3.74-34.86-20.54-40.32-5.52-1.79-11.16-2-16.45-.89.68-.64,1.39-1.25,2.13-1.82,6.04-1.83,12.69-1.9,19.15.2Z"/>
    <path class="cls-9" d="m90.62,9.5c16.8,5.46,26,23.51,20.54,40.32-1.74,5.35-4.75,9.93-8.6,13.51-1.1.23-2.2.4-3.33.51,2.77-3.16,4.96-6.92,6.34-11.17,5.46-16.81-3.74-34.86-20.54-40.32-4.37-1.42-8.83-1.85-13.12-1.4.72-.82,1.47-1.59,2.26-2.33,5.29-1.12,10.94-.91,16.45.89Z"/>
    <path class="cls-7" d="m85.04,12.34c16.8,5.46,26,23.51,20.54,40.32-1.38,4.25-3.57,8.01-6.34,11.17-1.12.12-2.24.17-3.38.16,1.81-2.56,3.27-5.43,4.29-8.57,5.46-16.81-3.74-34.86-20.54-40.32-3.24-1.05-6.52-1.56-9.74-1.57.64-.91,1.33-1.78,2.05-2.6,4.29-.44,8.75-.02,13.12,1.4Z"/>
    <path class="cls-6" d="m79.61,15.11c16.8,5.46,26,23.51,20.54,40.32-1.02,3.14-2.48,6.01-4.29,8.57-1.01,0-2.02-.05-3.04-.16,1.08-1.88,1.98-3.9,2.67-6.04,5.46-16.81-3.74-34.86-20.54-40.32-2.22-.72-4.47-1.19-6.7-1.41.5-.88,1.04-1.73,1.61-2.54,3.23.01,6.5.52,9.74,1.57Z"/>
    <path class="cls-3" d="m74.95,17.48c16.8,5.46,26,23.51,20.54,40.32-.7,2.14-1.6,4.16-2.67,6.04-1.23-.12-2.46-.31-3.68-.58.34-.81.65-1.65.93-2.5,5.46-16.81-3.74-34.86-20.54-40.32-1.01-.33-2.01-.6-3.02-.82.52-1.23,1.1-2.42,1.75-3.55,2.23.22,4.48.68,6.7,1.41Z"/>
    <path class="cls-8" d="m69.52,20.44c16.8,5.46,26,23.51,20.54,40.32-.28.85-.58,1.68-.93,2.5-1.02-.22-2.03-.5-3.03-.82s-1.93-.68-2.85-1.08c3.44-14.99-4.36-30.37-18.45-36.46.21-.93.47-1.86.77-2.77.28-.85.59-1.69.93-2.5,1.01.22,2.01.49,3.02.82Z"/>
    <path class="cls-5" d="m64.81,24.89c14.1,6.1,21.89,21.47,18.45,36.46-14.1-6.1-21.89-21.47-18.45-36.46Z"/>
  </g>
  <g>
    <path class="cls-4" d="m134.11,13.19c10.39-14.3,30.4-17.47,44.69-7.08,8.04,5.84,12.56,14.73,13.13,23.93-1.9-6.63-5.94-12.7-11.96-17.07-14.3-10.39-34.31-7.22-44.69,7.08-4.55,6.26-6.49,13.6-6.05,20.76-2.61-9.13-1.15-19.34,4.87-27.63Z"/>
    <path class="cls-1" d="m135.29,20.06c10.39-14.3,30.4-17.47,44.69-7.08,6.01,4.37,10.05,10.44,11.96,17.07.05.86.07,1.73.06,2.6-2.11-5.79-5.9-11.04-11.27-14.94-14.3-10.39-34.31-7.22-44.69,7.08-4,5.5-5.98,11.84-6.11,18.16-.26-.7-.48-1.42-.69-2.13-.44-7.16,1.5-14.5,6.05-20.76Z"/>
    <path class="cls-2" d="m136.04,24.79c10.39-14.3,30.4-17.47,44.69-7.08,5.36,3.9,9.15,9.15,11.27,14.94-.02.93-.08,1.86-.18,2.79-2.21-4.77-5.63-9.05-10.19-12.36-14.3-10.39-34.31-7.22-44.69,7.08-3.41,4.69-5.35,10-5.93,15.38-.4-.85-.76-1.71-1.07-2.58.13-6.32,2.11-12.66,6.11-18.16Z"/>
    <path class="cls-9" d="m136.93,30.16c10.39-14.3,30.4-17.47,44.69-7.08,4.55,3.31,7.97,7.59,10.19,12.36-.12,1.12-.3,2.22-.54,3.32-2.15-3.61-5.05-6.86-8.67-9.49-14.3-10.39-34.31-7.22-44.69,7.08-2.7,3.72-4.49,7.83-5.39,12.05-.55-.94-1.06-1.89-1.52-2.87.57-5.38,2.52-10.68,5.93-15.38Z"/>
    <path class="cls-7" d="m137.91,36.35c10.39-14.3,30.4-17.47,44.69-7.08,3.62,2.63,6.52,5.87,8.67,9.49-.24,1.1-.53,2.19-.89,3.27-1.87-2.52-4.15-4.79-6.82-6.73-14.3-10.39-34.31-7.22-44.69,7.08-2,2.75-3.5,5.72-4.51,8.78-.66-.89-1.28-1.81-1.84-2.75.91-4.22,2.69-8.33,5.39-12.05Z"/>
    <path class="cls-6" d="m138.86,42.37c10.39-14.3,30.4-17.47,44.69-7.08,2.67,1.94,4.95,4.21,6.82,6.73-.31.96-.67,1.91-1.09,2.84-1.45-1.6-3.09-3.09-4.92-4.41-14.3-10.39-34.31-7.22-44.69,7.08-1.38,1.89-2.51,3.88-3.41,5.94-.68-.75-1.32-1.52-1.91-2.32,1.01-3.06,2.51-6.03,4.51-8.78Z"/>
    <path class="cls-3" d="m139.68,47.53c10.39-14.3,30.4-17.47,44.69-7.08,1.82,1.32,3.46,2.81,4.92,4.41-.5,1.13-1.06,2.24-1.69,3.32-.67-.58-1.36-1.13-2.09-1.65-14.3-10.39-34.31-7.22-44.69,7.08-.62.86-1.19,1.73-1.71,2.62-1.01-.87-1.96-1.8-2.84-2.76.9-2.06,2.03-4.05,3.41-5.94Z"/>
    <path class="cls-8" d="m140.82,53.61c10.39-14.3,30.4-17.47,44.69-7.08.72.52,1.42,1.08,2.09,1.65-.52.9-1.1,1.77-1.72,2.63s-1.24,1.62-1.91,2.37c-13.19-7.9-30.23-5.24-40.38,6.29-.82-.49-1.62-1.02-2.4-1.59-.72-.52-1.42-1.08-2.09-1.65.52-.89,1.09-1.76,1.71-2.62Z"/>
    <path class="cls-5" d="m143.6,59.47c10.16-11.53,27.19-14.19,40.38-6.29-10.16,11.53-27.19,14.19-40.38,6.29Z"/>
  </g>
  <g>
    <path class="cls-4" d="m198.11,50.81c-10.39-14.3-7.22-34.31,7.08-44.7,8.04-5.84,17.89-7.4,26.82-5.09-6.89-.24-13.91,1.73-19.93,6.1-14.3,10.39-17.47,30.4-7.08,44.7,4.55,6.26,10.93,10.38,17.87,12.17-9.49-.34-18.75-4.89-24.77-13.17Z"/>
    <path class="cls-1" d="m205.01,51.81c-10.39-14.3-7.22-34.31,7.08-44.7,6.01-4.37,13.03-6.33,19.93-6.1.83.22,1.67.47,2.49.75-6.16.22-12.32,2.2-17.69,6.1-14.3,10.39-17.47,30.4-7.08,44.7,4,5.5,9.42,9.35,15.38,11.42-.75.03-1.5.02-2.24,0-6.94-1.79-13.33-5.91-17.87-12.17Z"/>
    <path class="cls-2" d="m209.74,52.56c-10.39-14.3-7.22-34.31,7.08-44.7,5.37-3.9,11.53-5.88,17.69-6.1.88.31,1.74.65,2.6,1.04-5.22.63-10.35,2.56-14.9,5.87-14.3,10.39-17.47,30.4-7.08,44.7,3.41,4.69,7.86,8.18,12.79,10.39-.93.12-1.86.19-2.79.22-5.97-2.07-11.39-5.92-15.38-11.42Z"/>
    <path class="cls-9" d="m215.12,53.37c-10.39-14.3-7.22-34.31,7.08-44.7,4.55-3.31,9.68-5.24,14.9-5.87,1.03.46,2.02.97,2.99,1.54-4.1.92-8.08,2.68-11.7,5.31-14.3,10.39-17.47,30.4-7.08,44.7,2.7,3.72,6.06,6.69,9.79,8.85-1.06.24-2.13.43-3.2.56-4.94-2.21-9.38-5.7-12.79-10.39Z"/>
    <path class="cls-7" d="m221.31,54.35c-10.39-14.3-7.22-34.31,7.08-44.7,3.62-2.63,7.6-4.39,11.7-5.31.97.56,1.92,1.18,2.83,1.85-2.97,1-5.84,2.47-8.51,4.41-14.3,10.39-17.47,30.4-7.08,44.7,2,2.75,4.36,5.09,6.96,7-1.05.36-2.12.66-3.18.9-3.73-2.17-7.09-5.13-9.79-8.85Z"/>
    <path class="cls-6" d="m227.33,55.3c-10.39-14.3-7.22-34.31,7.08-44.7,2.67-1.94,5.54-3.41,8.51-4.41.82.59,1.61,1.23,2.36,1.91-1.97.89-3.89,1.99-5.71,3.31-14.3,10.39-17.47,30.4-7.08,44.7,1.38,1.89,2.92,3.59,4.6,5.08-.92.42-1.86.79-2.8,1.1-2.6-1.91-4.96-4.25-6.96-7Z"/>
    <path class="cls-3" d="m232.49,56.12c-10.39-14.3-7.22-34.31,7.08-44.7,1.82-1.32,3.74-2.43,5.71-3.31.92.82,1.8,1.7,2.64,2.63-.76.46-1.49.95-2.22,1.47-14.3,10.39-17.47,30.4-7.08,44.7.62.86,1.27,1.67,1.96,2.44-1.14.69-2.31,1.31-3.5,1.84-1.68-1.49-3.22-3.19-4.6-5.08Z"/>
    <path class="cls-8" d="m238.63,56.92c-10.39-14.3-7.22-34.31,7.08-44.7.72-.52,1.46-1.02,2.22-1.47.69.78,1.35,1.59,1.97,2.44s1.16,1.68,1.67,2.55c-11.59,10.11-14.33,27.13-6.5,40.35-.72.63-1.47,1.23-2.25,1.79-.72.52-1.47,1.02-2.22,1.47-.69-.77-1.34-1.58-1.96-2.44Z"/>
    <path class="cls-5" d="m245.06,56.09c-7.82-13.22-5.09-30.24,6.5-40.35,7.83,13.23,5.09,30.24-6.5,40.35Z"/>
  </g>
  <g>
    <path class="cls-4" d="m297.89,62.43c-16.8,5.46-34.85-3.74-40.31-20.54-3.07-9.45-1.51-19.3,3.44-27.08-2.35,6.48-2.65,13.76-.36,20.83,5.46,16.8,23.51,26,40.31,20.54,7.35-2.39,13.24-7.19,17.09-13.24-3.26,8.92-10.44,16.32-20.18,19.48Z"/>
    <path class="cls-1" d="m300.97,56.18c-16.8,5.46-34.85-3.74-40.31-20.54-2.3-7.07-2-14.35.36-20.83.46-.73.96-1.45,1.48-2.14-1.69,5.92-1.71,12.4.33,18.7,5.46,16.8,23.51,26,40.31,20.54,6.46-2.1,11.8-6.07,15.61-11.1-.21.72-.44,1.43-.69,2.13-3.85,6.05-9.74,10.85-17.09,13.24Z"/>
    <path class="cls-2" d="m303.15,51.91c-16.8,5.46-34.85-3.74-40.31-20.54-2.05-6.31-2.03-12.78-.33-18.7.56-.74,1.16-1.46,1.79-2.15-1.01,5.16-.76,10.63.98,15.98,5.46,16.8,23.51,26,40.31,20.54,5.52-1.79,10.21-4.94,13.83-8.95-.17.92-.39,1.83-.65,2.72-3.81,5.03-9.15,9-15.61,11.1Z"/>
    <path class="cls-9" d="m305.58,47.05c-16.8,5.46-34.85-3.74-40.31-20.54-1.74-5.35-1.99-10.82-.98-15.98.75-.83,1.54-1.62,2.39-2.37-.39,4.18.05,8.51,1.44,12.76,5.46,16.8,23.51,26,40.31,20.54,4.37-1.42,8.23-3.7,11.44-6.58-.1,1.08-.25,2.15-.46,3.21-3.62,4.01-8.31,7.16-13.83,8.95Z"/>
    <path class="cls-7" d="m308.42,41.46c-16.8,5.46-34.85-3.74-40.31-20.54-1.38-4.25-1.82-8.58-1.44-12.76.84-.75,1.71-1.46,2.64-2.12.03,3.13.54,6.32,1.56,9.45,5.46,16.8,23.51,26,40.31,20.54,3.24-1.05,6.19-2.57,8.81-4.45.02,1.11-.03,2.22-.13,3.3-3.21,2.88-7.07,5.16-11.44,6.58Z"/>
    <path class="cls-6" d="m311.19,36.03c-16.8,5.46-34.85-3.74-40.31-20.54-1.02-3.14-1.53-6.32-1.56-9.45.82-.6,1.67-1.15,2.55-1.66.23,2.15.69,4.31,1.39,6.46,5.46,16.8,23.51,26,40.31,20.54,2.22-.72,4.31-1.67,6.25-2.8.11,1.01.17,2.01.19,3-2.62,1.89-5.57,3.4-8.81,4.45Z"/>
    <path class="cls-3" d="m313.56,31.38c-16.8,5.46-34.85-3.74-40.31-20.54-.7-2.14-1.15-4.31-1.39-6.46,1.07-.62,2.17-1.19,3.32-1.69.2.86.44,1.71.72,2.56,5.46,16.8,23.51,26,40.31,20.54,1.01-.33,1.98-.7,2.93-1.11.31,1.3.53,2.6.67,3.9-1.94,1.13-4.02,2.08-6.25,2.8Z"/>
    <path class="cls-8" d="m316.21,25.79c-16.8,5.46-34.85-3.74-40.31-20.54-.28-.85-.51-1.7-.72-2.56.95-.42,1.93-.79,2.93-1.11s1.96-.58,2.94-.8c6.03,14.15,21.37,22,36.36,18.65.37.87.71,1.78,1.01,2.69.28.85.52,1.71.72,2.56-.95.42-1.92.79-2.93,1.11Z"/>
    <path class="cls-5" d="m317.41,19.42c-14.99,3.36-30.33-4.5-36.36-18.65,14.99-3.36,30.33,4.5,36.36,18.65Z"/>
  </g>
</svg>